<?xml version="1.0" standalone="no"?>
<!DOCTYPE svg PUBLIC "-//W3C//DTD SVG 20010904//EN"
 "http://www.w3.org/TR/2001/REC-SVG-20010904/DTD/svg10.dtd">
<svg version="1.0" xmlns="http://www.w3.org/2000/svg"
 width="251.000000pt" height="251.000000pt" viewBox="0 0 251.000000 251.000000"
 preserveAspectRatio="xMidYMid meet">
<metadata>
Created by potrace 1.11, written by Peter Selinger 2001-2013
</metadata>
<g transform="translate(0.000000,251.000000) scale(0.100000,-0.100000)"
fill="#000000" stroke="none">
<path d="M487 2154 c-1 -2 -31 -4 -65 -6 -34 -1 -62 -5 -63 -8 0 -3 -2 -13 -4
-22 -2 -14 3 -18 23 -18 46 0 71 -11 78 -33 4 -12 7 -197 7 -411 -1 -369 -2
-390 -19 -403 -11 -8 -32 -12 -47 -10 -27 4 -55 -22 -40 -37 3 -3 73 -6 155
-6 141 0 148 1 148 20 0 14 -7 20 -22 21 -38 1 -60 7 -72 19 -7 7 -11 142 -12
443 -1 238 -2 437 -3 443 -1 9 -56 16 -64 8z"/>
<path d="M838 2119 c-36 -14 -53 -61 -33 -99 23 -45 66 -53 109 -19 64 50 3
146 -76 118z"/>
<path d="M783 1802 c-38 -3 -43 -6 -43 -28 0 -21 5 -24 33 -24 70 0 70 0 70
-255 -1 -256 0 -255 -73 -255 -29 0 -36 -4 -37 -20 -2 -19 4 -20 148 -20 142
0 149 1 149 20 0 11 -6 20 -12 21 -43 3 -60 7 -71 18 -8 8 -12 85 -12 279 l0
267 -55 0 c-30 0 -74 -1 -97 -3z"/>
<path d="M1178 1802 c-39 -2 -58 -8 -62 -18 -9 -24 2 -34 39 -34 64 0 65 -6
65 -260 0 -257 2 -250 -74 -250 -29 0 -36 -4 -36 -20 0 -20 5 -20 157 -18 141
3 158 5 161 21 3 14 -4 17 -33 17 -75 0 -75 0 -75 194 0 103 5 187 11 207 29
85 114 147 186 136 78 -13 86 -37 88 -291 2 -191 0 -211 -17 -228 -10 -10 -32
-18 -53 -18 -28 0 -35 -4 -35 -20 0 -19 7 -20 155 -20 148 0 155 1 155 20 0
14 -7 20 -22 21 -32 1 -71 8 -77 15 -8 8 -7 343 1 376 24 99 138 171 217 138
51 -21 59 -60 60 -290 1 -113 -3 -211 -8 -219 -5 -7 -29 -16 -55 -18 -36 -5
-46 -9 -46 -24 0 -18 10 -19 154 -19 129 0 155 2 160 15 6 17 0 20 -56 30 -21
3 -40 11 -44 17 -4 5 -7 104 -8 217 -2 187 -4 211 -23 247 -25 49 -67 74 -138
81 -86 9 -164 -30 -217 -107 -17 -25 -17 -25 -17 -3 -1 33 -55 88 -99 101 -98
30 -190 1 -249 -77 l-33 -43 0 66 0 66 -37 -3 c-21 -1 -63 -3 -95 -5z"/>
<path d="M182 968 c-5 -7 -15 -33 -22 -58 -6 -25 -16 -62 -21 -82 l-10 -38
-59 0 c-53 0 -82 -12 -66 -27 3 -3 29 -7 58 -8 39 -1 53 -5 52 -16 -1 -8 -16
-75 -34 -151 -37 -153 -35 -179 13 -208 41 -26 83 -25 126 1 64 39 128 139 88
139 -7 0 -21 -16 -32 -36 -25 -47 -80 -94 -110 -94 -46 0 -49 29 -15 168 54
222 41 198 104 196 29 -1 59 2 66 6 25 15 -2 30 -56 30 -30 0 -54 3 -54 8 0 4
9 39 19 78 20 76 15 104 -18 104 -10 0 -23 -6 -29 -12z"/>
<path d="M1136 861 c-6 -10 14 -74 36 -112 7 -13 31 -43 53 -66 33 -36 36 -43
20 -43 -11 -1 -190 -1 -397 -1 -356 0 -379 -1 -388 -19 -7 -13 -6 -19 6 -24 9
-3 192 -6 408 -6 l393 0 -42 -43 c-42 -44 -77 -107 -89 -159 -6 -25 -3 -28 17
-28 19 0 26 8 35 38 24 81 108 171 174 187 54 14 53 31 -5 58 -90 41 -129 84
-171 190 -14 35 -38 48 -50 28z"/>
<path d="M1685 781 c-81 -38 -128 -111 -128 -201 0 -66 19 -113 62 -157 92
-96 237 -78 353 42 l51 53 51 -52 c119 -120 271 -139 366 -44 65 65 84 182 44
259 -82 160 -290 152 -423 -16 l-21 -28 -39 45 c-84 95 -227 140 -316 99z
m688 -35 c69 -28 115 -119 102 -198 -14 -78 -99 -141 -179 -133 -45 5 -110 51
-169 118 l-57 65 30 40 c72 99 186 145 273 108z m-529 -35 c35 -22 119 -110
138 -145 8 -15 0 -28 -55 -81 -67 -66 -107 -85 -180 -85 -119 0 -200 141 -144
251 48 94 146 119 241 60z"/>
</g>
</svg>
